<svg xmlns="http://www.w3.org/2000/svg" xmlns:xlink="http://www.w3.org/1999/xlink" width="78.561" height="66.318" viewBox="0 0 78.561 66.318">
<defs>
<g>
<g id="glyph-0-0">
<path d="M 7.421875 -2.171875 C 7.5625 -2.171875 7.859375 -2.171875 7.859375 -2.46875 C 7.859375 -2.765625 7.578125 -2.765625 7.421875 -2.765625 L 1.390625 -2.765625 C 1.25 -2.765625 0.953125 -2.765625 0.953125 -2.46875 C 0.953125 -2.171875 1.234375 -2.171875 1.390625 -2.171875 Z M 7.421875 -2.171875 " />
</g>
<g id="glyph-1-0">
<path d="M 4.703125 -2.171875 L 7.75 -2.171875 C 7.875 -2.171875 8.171875 -2.171875 8.171875 -2.46875 C 8.171875 -2.765625 7.890625 -2.765625 7.75 -2.765625 L 4.703125 -2.765625 L 4.703125 -5.828125 C 4.703125 -5.9375 4.703125 -6.234375 4.40625 -6.234375 C 4.09375 -6.234375 4.09375 -5.953125 4.09375 -5.828125 L 4.09375 -2.765625 L 1.0625 -2.765625 C 0.921875 -2.765625 0.625 -2.765625 0.625 -2.46875 C 0.625 -2.171875 0.921875 -2.171875 1.0625 -2.171875 L 4.09375 -2.171875 L 4.09375 0.890625 C 4.09375 1 4.09375 1.296875 4.390625 1.296875 C 4.703125 1.296875 4.703125 1.015625 4.703125 0.890625 Z M 4.703125 -2.171875 " />
</g>
</g>
<clipPath id="clip-0">
<path clip-rule="nonzero" d="M 4 0 L 74 0 L 74 65.644531 L 4 65.644531 Z M 4 0 " />
</clipPath>
</defs>
<g clip-path="url(#clip-0)">
<path fill="none" stroke-width="0.797" stroke-linecap="butt" stroke-linejoin="miter" stroke="rgb(0%, 0%, 0%)" stroke-opacity="1" stroke-miterlimit="10" d="M 23.611195 0.00117049 L -23.611679 27.780028 L -23.611679 -27.777687 Z M 23.611195 0.00117049 " transform="matrix(0.989821, 0, 0, -0.989821, 39.062739, 32.821471)" />
</g>
<path fill="none" stroke-width="0.3985" stroke-linecap="square" stroke-linejoin="miter" stroke="rgb(0%, 0%, 0%)" stroke-opacity="1" stroke-miterlimit="10" d="M -33.734249 13.888626 L -23.611679 13.888626 M -33.734249 -13.890232 L -23.611679 -13.890232 M 33.733765 0.00117049 L 23.611195 0.00117049 " transform="matrix(0.989821, 0, 0, -0.989821, 39.062739, 32.821471)" />
<g fill="rgb(0%, 0%, 0%)" fill-opacity="1">
<use xlink:href="#glyph-0-0" x="18.978284" y="21.538503" />
</g>
<g fill="rgb(0%, 0%, 0%)" fill-opacity="1">
<use xlink:href="#glyph-1-0" x="18.978284" y="49.034737" />
</g>
<path fill-rule="nonzero" fill="rgb(100%, 0%, 0%)" fill-opacity="1" d="M 6.234375 46.570312 C 6.234375 46.261719 5.984375 46.007812 5.671875 46.007812 C 5.363281 46.007812 5.113281 46.261719 5.113281 46.570312 C 5.113281 46.878906 5.363281 47.132812 5.671875 47.132812 C 5.984375 47.132812 6.234375 46.878906 6.234375 46.570312 Z M 6.234375 46.570312 " />
<path fill-rule="nonzero" fill="rgb(0%, 100%, 0%)" fill-opacity="1" d="M 6.234375 19.074219 C 6.234375 18.761719 5.984375 18.511719 5.671875 18.511719 C 5.363281 18.511719 5.113281 18.761719 5.113281 19.074219 C 5.113281 19.382812 5.363281 19.632812 5.671875 19.632812 C 5.984375 19.632812 6.234375 19.382812 6.234375 19.074219 Z M 6.234375 19.074219 " />
<path fill-rule="nonzero" fill="rgb(0%, 0%, 100%)" fill-opacity="1" d="M 73.011719 32.820312 C 73.011719 32.511719 72.761719 32.261719 72.453125 32.261719 C 72.140625 32.261719 71.890625 32.511719 71.890625 32.820312 C 71.890625 33.132812 72.140625 33.382812 72.453125 33.382812 C 72.761719 33.382812 73.011719 33.132812 73.011719 32.820312 Z M 73.011719 32.820312 " />
<g><circle cx="5.674" cy="46.570" r="1.2" fill="red" fill-opacity="0.35" stroke="red" stroke-width="0.3" /><text x="7.674" y="45.070" fill="red" stroke="none" font-size="4">+</text><circle cx="5.674" cy="19.072" r="1.2" fill="red" fill-opacity="0.35" stroke="red" stroke-width="0.3" /><text x="7.674" y="17.572" fill="red" stroke="none" font-size="4">-</text><circle cx="72.451" cy="32.822" r="1.2" fill="red" fill-opacity="0.35" stroke="red" stroke-width="0.3" /><text x="74.451" y="31.322" fill="red" stroke="none" font-size="4">out</text></g></svg>