<svg xmlns="http://www.w3.org/2000/svg" width="95.4" height="34.571" viewBox="0 0 95.4 34.571">
<path fill="none" stroke-width="0.3985" stroke-linecap="butt" stroke-linejoin="miter" stroke="rgb(0%, 0%, 0%)" stroke-opacity="1" stroke-miterlimit="10" d="M 0.000416505 -0.0000969093 L 26.647344 -0.0000969093 M 58.395865 -0.0000969093 L 85.038838 -0.0000969093 " transform="matrix(0.987743, 0, 0, -0.987743, 5.405839, 17.074123)" />
<path fill="none" stroke-width="0.797" stroke-linecap="butt" stroke-linejoin="bevel" stroke="rgb(0%, 0%, 0%)" stroke-opacity="1" stroke-miterlimit="10" d="M 26.247917 -0.0000969093 L 29.324692 5.951762 L 34.683343 -5.951956 L 40.041993 5.951762 L 45.396689 -5.951956 L 50.755339 5.951762 L 56.11399 -5.951956 L 58.791338 -0.0000969093 " transform="matrix(0.987743, 0, 0, -0.987743, 5.405839, 17.074123)" />
<path fill="none" stroke-width="0.797" stroke-linecap="butt" stroke-linejoin="bevel" stroke="rgb(0%, 0%, 0%)" stroke-opacity="1" stroke-miterlimit="10" d="M 36.170319 -11.903815 L 47.405688 9.162998 " transform="matrix(0.987743, 0, 0, -0.987743, 5.405839, 17.074123)" />
<path fill-rule="nonzero" fill="rgb(0%, 0%, 0%)" fill-opacity="1" d="M 53.675781 5.3125 C 52.847656 6.324219 51.3125 8.113281 49.574219 8.925781 C 51.417969 8.460938 52.320312 8.941406 52.960938 10.730469 C 52.667969 8.835938 53.300781 6.5625 53.675781 5.3125 Z M 53.675781 5.3125 " />
<path fill-rule="nonzero" fill="rgb(100%, 0%, 0%)" fill-opacity="1" d="M 32.285156 17.074219 C 32.285156 16.765625 32.035156 16.515625 31.726562 16.515625 C 31.414062 16.515625 31.164062 16.765625 31.164062 17.074219 C 31.164062 17.382812 31.414062 17.632812 31.726562 17.632812 C 32.035156 17.632812 32.285156 17.382812 32.285156 17.074219 Z M 32.285156 17.074219 " />
<path fill-rule="nonzero" fill="rgb(0%, 100%, 0%)" fill-opacity="1" d="M 63.644531 17.074219 C 63.644531 16.765625 63.394531 16.515625 63.085938 16.515625 C 62.773438 16.515625 62.523438 16.765625 62.523438 17.074219 C 62.523438 17.382812 62.773438 17.632812 63.085938 17.632812 C 63.394531 17.632812 63.644531 17.382812 63.644531 17.074219 Z M 63.644531 17.074219 " />
<g><circle cx="31.725" cy="17.074" r="1.2" fill="red" fill-opacity="0.35" stroke="red" stroke-width="0.3" /><text x="33.725" y="15.574" fill="red" stroke="none" font-size="4">+</text><circle cx="63.084" cy="17.074" r="1.2" fill="red" fill-opacity="0.35" stroke="red" stroke-width="0.3" /><text x="65.084" y="15.574" fill="red" stroke="none" font-size="4">-</text></g></svg>